<svg xmlns="http://www.w3.org/2000/svg" xml:space="preserve" style="fill-rule:evenodd;clip-rule:evenodd;stroke-linejoin:round;stroke-miterlimit:2" viewBox="0 0 512 512" id="car-repair">
  <g transform="translate(-1124)">
    <g id="Icons">
      <path d="M1228.94,90.776C1228.93,90.802 1228.91,90.829 1228.9,90.855L1193.55,154.978L1192.26,143.322C1191.98,140.763 1189.8,138.837 1187.23,138.872C1173.14,139.064 1158.18,142.65 1148.12,149.652C1140.59,154.886 1135.68,161.981 1135.03,170.838C1134.66,175.832 1137.66,179.752 1144.21,181.743C1151.56,183.977 1164.76,183.768 1177.88,183.472L1163.05,210.477C1157.58,220.434 1154.57,231.549 1154.25,242.903L1153.81,258.476C1153.81,258.52 1153.8,258.563 1153.8,258.606L1152.81,293.83C1152.74,296.498 1152.81,299.165 1153.03,301.817L1153.03,366.665C1153.03,378.628 1162.75,388.341 1174.71,388.341L1193.32,388.341C1205.28,388.341 1215,378.628 1215,366.665L1215,350.069L1271.19,350.069C1271.21,350.069 1271.24,350.069 1271.26,350.069L1411.08,350.069C1411.28,352.999 1411.59,355.922 1412.02,358.833C1412.3,360.768 1413.69,362.361 1415.56,362.909L1430.24,367.195C1432.46,375.595 1435.8,383.659 1440.17,391.169C1440.17,391.169 1432.82,404.575 1432.82,404.575C1431.88,406.29 1432.03,408.396 1433.2,409.964C1439.75,418.759 1447.54,426.553 1456.34,433.102C1457.9,434.27 1460.01,434.417 1461.73,433.477L1475.13,426.131C1482.64,430.503 1490.7,433.843 1499.11,436.062C1499.11,436.062 1503.39,450.736 1503.39,450.736C1503.94,452.613 1505.53,453.998 1507.47,454.282C1518.32,455.869 1529.34,455.869 1540.19,454.282C1542.12,453.998 1543.72,452.613 1544.26,450.736L1548.55,436.062C1556.95,433.843 1565.02,430.503 1572.53,426.131C1572.53,426.132 1585.93,433.477 1585.93,433.477C1587.65,434.417 1589.75,434.27 1591.32,433.102C1600.11,426.553 1607.91,418.759 1614.46,409.964C1615.63,408.396 1615.77,406.29 1614.83,404.575L1607.49,391.169C1611.86,383.66 1615.2,375.595 1617.42,367.194C1617.42,367.195 1632.09,362.909 1632.09,362.909C1633.97,362.361 1635.35,360.768 1635.64,358.833C1637.23,347.984 1637.23,336.961 1635.64,326.111C1635.35,324.176 1633.97,322.584 1632.09,322.036L1617.42,317.75C1615.2,309.349 1611.86,301.285 1607.49,293.775C1607.49,293.776 1614.83,280.369 1614.83,280.369C1615.77,278.654 1615.63,276.549 1614.46,274.98C1607.91,266.186 1600.11,258.391 1591.32,251.842C1589.75,250.674 1587.65,250.528 1585.93,251.467L1572.53,258.813C1565.02,254.442 1556.95,251.102 1548.55,248.882C1548.55,248.882 1544.26,234.209 1544.26,234.209C1543.72,232.331 1542.12,230.946 1540.19,230.663C1537.85,230.321 1535.51,230.053 1533.16,229.859C1531.71,223.105 1529.28,216.574 1525.93,210.477L1511.11,183.472C1524.22,183.768 1537.42,183.977 1544.77,181.743C1551.32,179.752 1554.33,175.832 1553.96,170.838C1553.3,161.981 1548.39,154.886 1540.87,149.652C1530.81,142.65 1515.84,139.064 1501.76,138.872C1499.18,138.837 1497,140.763 1496.72,143.322L1495.43,154.978C1485.35,136.691 1467.93,105.1 1460.08,90.854C1460.06,90.828 1460.05,90.801 1460.03,90.775C1456.74,84.828 1451.1,80.422 1444.44,79.014C1377.8,64.912 1311.16,64.692 1244.52,79.01C1237.88,80.438 1232.24,84.829 1228.94,90.776ZM1528.34,239.571C1522.91,239.333 1517.48,239.525 1512.08,240.145L1507.9,254.445C1507.39,256.18 1505.99,257.506 1504.23,257.914C1494.91,260.074 1486.01,263.76 1477.89,268.822C1476.36,269.778 1474.43,269.832 1472.85,268.964C1472.85,268.964 1459.78,261.806 1459.78,261.806C1453.63,266.693 1448.05,272.27 1443.16,278.426L1445.93,283.472C1445.95,283.523 1445.98,283.574 1446.01,283.626L1450.32,291.491C1451.19,293.076 1451.13,295.006 1450.18,296.54C1445.12,304.656 1441.43,313.554 1439.27,322.873C1438.86,324.633 1437.54,326.037 1435.8,326.543C1435.8,326.543 1421.5,330.72 1421.5,330.72C1420.6,338.529 1420.6,346.415 1421.5,354.225L1435.8,358.401C1437.54,358.908 1438.86,360.311 1439.27,362.072C1441.43,371.391 1445.12,380.288 1450.18,388.405C1451.13,389.938 1451.19,391.869 1450.32,393.453C1450.32,393.453 1443.16,406.518 1443.16,406.518C1448.05,412.675 1453.63,418.251 1459.78,423.139L1472.85,415.981C1474.43,415.112 1476.36,415.167 1477.89,416.123C1486.01,421.185 1494.91,424.871 1504.23,427.03C1505.99,427.439 1507.39,428.765 1507.9,430.5C1507.9,430.5 1512.08,444.8 1512.08,444.8C1519.88,445.696 1527.77,445.696 1535.58,444.799L1539.76,430.5C1540.26,428.765 1541.67,427.439 1543.43,427.03C1552.75,424.871 1561.64,421.185 1569.76,416.123C1571.29,415.167 1573.22,415.112 1574.81,415.981C1574.81,415.981 1587.87,423.139 1587.87,423.139C1594.03,418.251 1599.61,412.675 1604.49,406.518L1597.34,393.453C1596.47,391.869 1596.52,389.938 1597.48,388.405C1602.54,380.288 1606.23,371.391 1608.39,362.072C1608.79,360.311 1610.12,358.908 1611.86,358.401C1611.86,358.401 1626.15,354.225 1626.15,354.225C1627.05,346.415 1627.05,338.529 1626.15,330.72L1611.86,326.543C1610.12,326.037 1608.79,324.633 1608.39,322.873C1606.23,313.554 1602.54,304.656 1597.48,296.54C1596.52,295.006 1596.47,293.076 1597.34,291.491C1597.34,291.491 1604.5,278.426 1604.49,278.426C1599.61,272.27 1594.03,266.693 1587.87,261.806L1574.81,268.964C1573.22,269.832 1571.29,269.778 1569.76,268.822C1561.64,263.76 1552.75,260.074 1543.43,257.914C1541.67,257.506 1540.26,256.18 1539.76,254.445L1535.58,240.145L1535.58,240.145C1533.43,239.898 1531.27,239.719 1529.11,239.608C1528.85,239.616 1528.59,239.603 1528.34,239.571ZM1501.62,364.724L1501.62,399.943C1501.62,407.45 1507.72,413.545 1515.23,413.545L1532.43,413.545C1539.94,413.545 1546.03,407.45 1546.03,399.943C1546.03,399.943 1546.03,364.724 1546.03,364.724C1563,356.474 1574.71,339.063 1574.71,318.94C1574.71,297.604 1561.55,279.318 1542.91,271.765C1541.37,271.141 1539.62,271.323 1538.24,272.253C1536.86,273.182 1536.03,274.736 1536.03,276.399L1536.03,309.244C1536.03,311.232 1534.42,312.847 1532.43,312.847C1532.43,312.847 1515.23,312.847 1515.23,312.847C1513.24,312.847 1511.62,311.232 1511.62,309.244C1511.62,309.244 1511.62,276.399 1511.62,276.399C1511.62,274.736 1510.8,273.182 1509.42,272.253C1508.04,271.323 1506.29,271.141 1504.75,271.765C1486.11,279.318 1472.95,297.604 1472.95,318.94C1472.95,339.063 1484.65,356.474 1501.62,364.724ZM1511.62,361.48C1511.62,359.444 1510.39,357.611 1508.5,356.846C1493.52,350.777 1482.95,336.084 1482.95,318.94C1482.95,304.561 1490.39,291.906 1501.62,284.617C1501.62,284.617 1501.62,309.244 1501.62,309.244C1501.62,316.752 1507.72,322.847 1515.23,322.847L1532.43,322.847C1539.94,322.847 1546.03,316.752 1546.03,309.244C1546.03,309.244 1546.03,284.617 1546.03,284.617C1557.27,291.906 1564.71,304.561 1564.71,318.94C1564.71,336.084 1554.13,350.777 1539.15,356.846C1537.27,357.611 1536.03,359.444 1536.03,361.48L1536.03,399.943C1536.03,401.931 1534.42,403.545 1532.43,403.545C1532.43,403.545 1515.23,403.545 1515.23,403.545C1513.24,403.545 1511.62,401.931 1511.62,399.943C1511.62,399.943 1511.62,361.48 1511.62,361.48ZM1163.03,340.734L1163.03,366.665C1163.03,373.109 1168.26,378.341 1174.71,378.341C1174.71,378.341 1193.32,378.341 1193.32,378.341C1199.76,378.341 1205,373.109 1205,366.665L1205,350.069L1169.54,350.069C1167.33,350.069 1165.38,348.615 1164.75,346.494L1163.03,340.734ZM1193.16,176.404L1190.83,180.665C1190.82,180.682 1190.81,180.698 1190.8,180.715L1171.82,215.29C1167.11,223.855 1164.52,233.417 1164.24,243.185L1163.92,254.498C1189.63,259.627 1205.34,274.211 1220.43,291.241C1227.32,299.018 1234.08,307.327 1241.77,315.354C1242.02,315.572 1242.26,315.816 1242.46,316.08C1250.89,324.795 1260.46,333.142 1272.55,340.069L1410.85,340.069C1410.95,335.404 1411.34,330.742 1412.02,326.111C1412.3,324.176 1413.69,322.584 1415.56,322.036C1415.56,322.036 1430.24,317.75 1430.24,317.75C1432.46,309.349 1435.8,301.285 1440.17,293.776L1440.14,293.725C1433.91,299.038 1427.34,304.765 1421.92,309.763C1411.36,319.508 1397.52,324.919 1383.14,324.919L1305.84,324.919C1291.47,324.919 1277.63,319.508 1267.07,309.763C1251.66,295.549 1229.91,275.482 1229.91,275.482C1228.4,274.085 1227.9,271.904 1228.65,269.987C1229.39,268.069 1231.24,266.807 1233.3,266.807L1394.23,266.807C1396.99,266.807 1399.23,269.047 1399.23,271.807C1399.23,274.567 1396.99,276.807 1394.23,276.807C1394.23,276.807 1246.1,276.807 1246.1,276.807C1246.1,276.807 1273.85,302.414 1273.85,302.414C1282.56,310.455 1293.98,314.919 1305.84,314.919L1383.14,314.919C1395,314.919 1406.42,310.455 1415.14,302.414C1421.1,296.91 1428.45,290.534 1435.23,284.77L1432.82,280.369C1432.22,279.261 1432.06,277.991 1432.34,276.807L1418.28,276.807C1415.52,276.807 1413.28,274.567 1413.28,271.807C1413.28,269.047 1415.52,266.807 1418.28,266.807L1439.9,266.807C1444.87,261.297 1450.37,256.283 1456.34,251.842C1457.9,250.674 1460.01,250.528 1461.73,251.467C1461.73,251.467 1475.13,258.813 1475.13,258.813C1482.64,254.442 1490.7,251.102 1499.11,248.882L1500.48,244.186C1500.01,244.347 1499.53,244.489 1499.04,244.612C1472.73,251.208 1449.86,246.114 1430.69,228.358C1425.09,230.704 1418.97,231.975 1412.66,231.975L1276.33,231.975C1270.02,231.975 1263.91,230.707 1258.3,228.363C1239.14,246.115 1216.27,251.207 1189.96,244.612C1181.45,242.479 1175.83,234.362 1176.83,225.641C1177.87,216.046 1181.03,207.655 1186.34,200.498C1186.34,200.495 1186.34,200.493 1186.34,200.49C1189.71,195.974 1195.04,193.356 1200.67,193.458C1200.68,193.458 1200.69,193.458 1200.7,193.458C1211.99,193.716 1222.3,196.276 1231.9,200.467L1221.84,178.181L1221.82,178.122C1212.54,177.614 1203.03,177.041 1193.16,176.404ZM1163.64,264.66L1162.81,294.112C1162.74,296.453 1162.81,298.793 1163.01,301.12C1163.01,301.149 1163.02,301.179 1163.02,301.209C1163.38,305.33 1164.15,309.411 1165.34,313.389C1165.34,313.389 1173.27,340.069 1173.27,340.069L1254.41,340.069C1247.78,335.093 1241.92,329.73 1236.5,324.216C1208.06,324.727 1188.07,318.073 1178,303.999C1171.52,294.945 1168.89,282.667 1171.06,266.711C1168.69,265.923 1166.22,265.236 1163.64,264.66ZM1180.65,270.695C1179.46,282.278 1181.26,291.375 1186.13,298.18C1193.59,308.598 1207.69,313.371 1227.14,314.139C1222.25,308.646 1217.62,303.15 1212.94,297.873C1203.38,287.077 1193.63,277.23 1180.65,270.695ZM1439.95,223.187C1456.01,236.727 1474.98,240.334 1496.61,234.912C1496.61,234.912 1496.61,234.911 1496.61,234.911C1500.26,233.997 1502.67,230.512 1502.23,226.771C1502.23,226.756 1502.23,226.741 1502.23,226.726C1501.39,219.001 1498.91,212.225 1494.64,206.463C1493.2,204.534 1490.92,203.416 1488.52,203.456C1472.45,203.826 1458.68,209.538 1446.06,217.941C1444.17,219.867 1442.13,221.621 1439.95,223.187ZM1242.89,217.908C1230.29,209.523 1216.53,203.826 1200.49,203.456C1198.08,203.416 1195.8,204.534 1194.36,206.463C1190.09,212.225 1187.61,219.001 1186.78,226.726C1186.77,226.741 1186.77,226.756 1186.77,226.771C1186.33,230.512 1188.74,233.997 1192.39,234.911C1192.39,234.911 1192.39,234.912 1192.39,234.912C1214.02,240.334 1232.99,236.728 1249.05,223.194C1246.85,221.618 1244.79,219.85 1242.89,217.908ZM1495.81,176.393C1486.26,176.975 1476.74,177.503 1467.23,177.977C1467.2,178.046 1467.17,178.114 1467.14,178.181L1457.08,200.477C1466.69,196.279 1477,193.716 1488.3,193.458C1488.31,193.458 1488.32,193.458 1488.33,193.458C1493.96,193.356 1499.29,195.974 1502.66,200.49C1502.66,200.493 1502.66,200.495 1502.66,200.498C1507.98,207.655 1511.13,216.046 1512.17,225.641C1512.34,227.148 1512.32,228.637 1512.11,230.081C1515.67,229.711 1519.23,229.509 1522.8,229.477C1521.52,224.549 1519.63,219.782 1517.17,215.29L1498.19,180.715C1498.18,180.698 1498.17,180.682 1498.16,180.665L1495.81,176.393ZM1452.72,98.227L1236.26,98.227L1198.5,166.724C1269.14,171.19 1322.35,172.256 1397.27,169.921C1400.03,169.835 1402.34,172.004 1402.42,174.762C1402.51,177.521 1400.34,179.83 1397.58,179.916C1335.22,181.859 1287.84,181.458 1233.05,178.712L1242.82,200.342C1244.52,204.103 1246.8,207.48 1249.53,210.387C1249.7,210.541 1249.86,210.706 1250.01,210.879C1252.78,213.72 1255.98,216.088 1259.5,217.897C1259.55,217.923 1259.6,217.95 1259.65,217.978C1264.72,220.556 1270.41,221.975 1276.33,221.975L1412.66,221.975C1422.84,221.975 1432.36,217.771 1439.17,210.681C1439.21,210.644 1439.24,210.608 1439.28,210.572C1442.09,207.624 1444.43,204.183 1446.16,200.342L1456.02,178.512C1443.8,179.069 1431.6,179.537 1419.45,179.916C1416.69,180.002 1414.38,177.832 1414.3,175.074C1414.21,172.316 1416.38,170.007 1419.14,169.921C1442.78,169.184 1466.55,168.109 1490.47,166.696C1482.15,151.603 1462.36,115.695 1452.72,98.227ZM1503.81,170.187L1505.55,173.35C1517.36,173.619 1529.98,174.225 1538.36,172.933C1539.89,172.698 1541.25,172.403 1542.39,172.003C1542.93,171.816 1543.62,171.427 1543.95,171.229C1543.41,165.596 1539.99,161.22 1535.16,157.86C1527.62,152.613 1516.81,149.789 1506.15,149.057L1503.81,170.187ZM1185.17,170.187L1182.84,149.057C1172.17,149.789 1161.37,152.613 1153.83,157.86C1149,161.219 1145.57,165.595 1145.03,171.228C1145.43,171.448 1146.36,171.943 1147.12,172.176C1150.49,173.2 1155.28,173.551 1160.71,173.669C1167.73,173.82 1175.76,173.52 1183.43,173.349L1185.17,170.187ZM1439.64,88.227C1376.18,75.168 1312.73,74.967 1249.26,88.227L1439.64,88.227Z"></path>
    </g>
  </g>
</svg>
